<svg xmlns="http://www.w3.org/2000/svg" xmlns:xlink="http://www.w3.org/1999/xlink" width="116" height="53" viewBox="0 0 116 53"><defs><style>.a,.c{fill:#ec681f;}.a{stroke:#707070;}.b{clip-path:url(#a);}</style><clipPath id="a"><rect class="a" width="116" height="53" transform="translate(30 26)"/></clipPath></defs><g class="b" transform="translate(-30 -26)"><g transform="translate(30 27.921)"><path class="c" d="M33.913,70.492a5.824,5.824,0,0,0,2.475.59c1.027,0,1.565-.408,1.565-1.039,0-.577-.468-.926-1.654-1.318-1.64-.562-2.723-1.434-2.723-2.823,0-1.605,1.42-2.84,3.733-2.84a5.988,5.988,0,0,1,2.519.478l-.5,1.712a4.814,4.814,0,0,0-2.053-.448c-.968,0-1.435.435-1.435.913,0,.6.541.864,1.83,1.345,1.741.617,2.547,1.488,2.547,2.84,0,1.584-1.259,2.935-3.968,2.935a6.675,6.675,0,0,1-2.8-.59Z" transform="translate(-11.83 -23.825)"/><path class="c" d="M48.309,64.5V66.36H49.9v1.568H48.309v2.507c0,.825.218,1.205.878,1.205a2.785,2.785,0,0,0,.66-.057l.014,1.605a4.755,4.755,0,0,1-1.435.186,2.443,2.443,0,0,1-1.684-.59,2.765,2.765,0,0,1-.616-2.035V67.934h-.951V66.36h.952V65.074Z" transform="translate(-15.974 -24.368)"/><path class="c" d="M61.206,72.153c0,.9.03,1.629.059,2.2H59.336l-.1-.969H59.19a2.584,2.584,0,0,1-2.239,1.125c-1.464,0-2.519-.872-2.519-2.991V67.492h2.225V71.18c0,1,.337,1.605,1.129,1.605a1.18,1.18,0,0,0,1.111-.741,1.083,1.083,0,0,0,.089-.463v-4.09h2.22Z" transform="translate(-19.247 -25.5)"/><path class="c" d="M74.375,62.511v7.914c0,.785.03,1.586.058,2.047H72.457l-.087-1h-.045a2.529,2.529,0,0,1-2.24,1.151c-1.7,0-3.059-1.392-3.059-3.523a3.173,3.173,0,0,1,.775-2.5,3.434,3.434,0,0,1,2.433-1.15,2.244,2.244,0,0,1,1.889.773h.03V62.511ZM72.149,68.53a1.734,1.734,0,0,0-.03-.39,1.31,1.31,0,0,0-1.3-1.041c-1.027,0-1.54.864-1.54,1.951,0,1.151.6,1.879,1.523,1.879a1.305,1.305,0,0,0,1.3-1.022,2.423,2.423,0,0,0,.044-.477Z" transform="translate(-23.691 -23.618)"/><path class="c" d="M82.184,64.566a1.272,1.272,0,1,1,.015,0Zm-1.091,7.76V65.461h2.225v6.86Z" transform="translate(-28.613 -23.469)"/><path class="c" d="M90.449,74.414a3.58,3.58,0,0,1-2.674-.971,3.3,3.3,0,0,1-1.031-2.566A3.368,3.368,0,0,1,87.8,68.22a3.654,3.654,0,0,1,2.776-.979,3.55,3.55,0,0,1,2.639.98,3.275,3.275,0,0,1,1.007,2.544A3.371,3.371,0,0,1,93.194,73.4a3.655,3.655,0,0,1-2.73,1.013Zm.044-1.531c.879,0,1.42-.827,1.42-2.062,0-1.013-.411-2.047-1.42-2.047-1.053,0-1.464,1.035-1.464,2.061,0,1.166.513,2.049,1.449,2.049Z" transform="translate(-30.669 -25.401)"/><path class="c" d="M105.138,72.781V63.323h2.611l2.053,3.464a29.211,29.211,0,0,1,1.61,3.242h.028a37.309,37.309,0,0,1-.174-3.952V63.323h2.053v9.455h-2.355l-2.108-3.652a33.037,33.037,0,0,1-1.713-3.334h-.058c.073,1.263.1,2.593.1,4.141v2.848Z" transform="translate(-37.176 -23.924)"/><path class="c" d="M121.661,64.57a1.269,1.269,0,1,1,.015,0Zm-1.1,7.76V65.465h2.226v6.86Z" transform="translate(-42.573 -23.474)"/><path class="c" d="M133.95,72.425a6.764,6.764,0,0,1-2.518.409,4.812,4.812,0,0,1-3.726-1.23,4.433,4.433,0,0,1-1.444-3.528,4.723,4.723,0,0,1,1.523-3.672,5.121,5.121,0,0,1,3.866-1.337,6.017,6.017,0,0,1,2.43.421l-.468,1.684a4.845,4.845,0,0,0-1.873-.351,3.025,3.025,0,0,0-2.325.871,3.53,3.53,0,0,0,.019,4.52,3,3,0,0,0,2.321.838,5.54,5.54,0,0,0,1.873-.31Z" transform="translate(-44.642 -23.822)"/><path class="c" d="M140.321,69.662c0-1.011-.014-1.67-.058-2.257h1.9l.089,1.273h.058a2.074,2.074,0,0,1,1.932-1.43,2.4,2.4,0,0,1,.47.042v2.005a3.954,3.954,0,0,0-.616-.054,1.405,1.405,0,0,0-1.522,1.079,2.223,2.223,0,0,0-.045.478v3.466h-2.225Z" transform="translate(-49.596 -25.407)"/><g transform="translate(0 0)"><path class="c" d="M105.219,14.158,102.311,2.2c-.015-.057-.041-.11-.06-.168a2.513,2.513,0,0,0-.1-.289,2.614,2.614,0,0,0-.128-.247c-.044-.081-.09-.158-.142-.237a2.268,2.268,0,0,0-.178-.221c-.063-.073-.119-.137-.186-.2A1.9,1.9,0,0,0,101.3.653a2.587,2.587,0,0,0-.23-.163,2.194,2.194,0,0,0-.246-.14c-.082-.042-.166-.085-.257-.123a3.151,3.151,0,0,0-.307-.1,1.31,1.31,0,0,0-.167-.058.675.675,0,0,1-.074-.01c-.11-.02-.221-.028-.334-.038Q99.558.005,99.429,0c-.1,0-.192.012-.29.021a2.9,2.9,0,0,0-.3.038.64.64,0,0,0-.083.01c-.064.016-.122.043-.185.059-.1.03-.192.057-.285.1a2.7,2.7,0,0,0-.271.123l-.231.123a2.892,2.892,0,0,0-.243.18,2.605,2.605,0,0,0-.2.17,2.31,2.31,0,0,0-.191.207c-.062.072-.121.142-.175.217a2.367,2.367,0,0,0-.145.237c-.045.082-.089.159-.128.247a2.779,2.779,0,0,0-.1.289c-.018.058-.045.111-.06.168L92.555,18.6,88.577,2.188a3,3,0,0,0-5.774,0L78.826,18.6,74.848,2.188c-.014-.057-.042-.11-.059-.168a2.773,2.773,0,0,0-.1-.289c-.037-.085-.082-.163-.128-.247s-.092-.158-.145-.237a1.6,1.6,0,0,0-.185-.211c-.068-.072-.119-.137-.189-.2a2.16,2.16,0,0,0-.212-.178A2.568,2.568,0,0,0,73.6.49a2.209,2.209,0,0,0-.248-.14c-.083-.042-.164-.085-.257-.123s-.2-.073-.309-.1C72.732.11,72.679.083,72.627.07a.718.718,0,0,1-.074-.01c-.11-.02-.221-.028-.332-.038Q72.092.005,71.963,0c-.1,0-.194.012-.291.021a2.946,2.946,0,0,0-.3.038.64.64,0,0,0-.083.01c-.071.016-.131.049-.2.062A2.423,2.423,0,0,0,70.8.225c-.095.038-.185.083-.273.123s-.154.084-.228.123a2.94,2.94,0,0,0-.243.19,2.563,2.563,0,0,0-.2.17,2.072,2.072,0,0,0-.2.211,2.6,2.6,0,0,0-.172.214,2.381,2.381,0,0,0-.146.237c-.045.082-.089.159-.128.247a2.51,2.51,0,0,0-.1.289c-.018.058-.045.111-.059.168L65.08,18.612,61.1,2.2a3,3,0,0,0-5.774,0L51.351,18.612,47.373,2.2c-.013-.057-.042-.11-.059-.168-.032-.1-.063-.2-.1-.289s-.082-.163-.128-.247a2.694,2.694,0,0,0-.142-.235,2.8,2.8,0,0,0-.186-.224c-.062-.072-.119-.137-.186-.2a2.211,2.211,0,0,0-.213-.179A2.733,2.733,0,0,0,46.126.49Q46,.413,45.869.348a2.3,2.3,0,0,0-.257-.117c-.094-.035-.189-.073-.3-.1-.058-.016-.11-.043-.169-.056q-.037,0-.074-.01c-.109-.02-.219-.028-.332-.038Q44.612.005,44.483,0c-.095,0-.192.012-.29.021a3.113,3.113,0,0,0-.309.038A.64.64,0,0,0,43.8.07c-.065.016-.128.043-.187.062a2.593,2.593,0,0,0-.282.093c-.1.038-.185.083-.275.123s-.153.084-.227.123a2.933,2.933,0,0,0-.245.18c-.069.056-.128.109-.2.17a2.244,2.244,0,0,0-.2.211c-.059.068-.117.138-.171.214a2.645,2.645,0,0,0-.146.237c-.045.082-.087.159-.128.247a2.516,2.516,0,0,0-.105.289c-.017.058-.045.111-.059.168L37.6,18.6,33.624,2.188a3,3,0,0,0-5.774,0L23.867,18.609,19.889,2.2a2.9,2.9,0,0,0-2.2-2.109L17.642.07h-.018A2.988,2.988,0,0,0,17.2.02,1.856,1.856,0,0,0,16.988,0c-.071,0-.144.01-.217.016a2.983,2.983,0,0,0-.422.051h-.018a.122.122,0,0,1-.035.02A2.9,2.9,0,0,0,14.088,2.2l-2.9,11.962H0v5.68H13.537a2.943,2.943,0,0,0,2.887-2.2l.562-2.315L20.981,31.8a3,3,0,0,0,5.774,0l3.978-16.413L34.711,31.8a3,3,0,0,0,5.774,0l3.978-16.413L48.44,31.8a3,3,0,0,0,5.774,0l3.978-16.413L62.17,31.8a3,3,0,0,0,5.774,0l3.978-16.413L75.9,31.8a3,3,0,0,0,5.774,0l3.978-16.413L89.63,31.8a3,3,0,0,0,5.774,0l3.978-16.413.547,2.251a2.943,2.943,0,0,0,2.888,2.2h13.537v-5.68Z" transform="translate(0 0.01)"/><path class="c" d="M162.862,45.529a2.842,2.842,0,1,0,2.964,2.84A2.9,2.9,0,0,0,162.862,45.529Z" transform="translate(-56.547 -17.2)"/></g></g></g></svg>